<svg width="24" height="25" fill="none" xmlns="http://www.w3.org/2000/svg">
<path d="M0.585786 20.7989C-0.195262 21.58 -0.195262 22.8463 0.585786 23.6273C1.36684 24.4084 2.63316 24.4084 3.41421 23.6273L0.585786 20.7989ZM23.799 2.41415C23.799 1.30958 22.9036 0.414145 21.799 0.414146L3.79899 0.414146C2.69442 0.414145 1.79899 1.30958 1.79899 2.41415C1.79899 3.51871 2.69442 4.41415 3.79899 4.41415L19.799 4.41414L19.799 20.4141C19.799 21.5187 20.6944 22.4141 21.799 22.4141C22.9036 22.4141 23.799 21.5187 23.799 20.4141L23.799 2.41415ZM3.41421 23.6273L23.2132 3.82836L20.3848 0.999932L0.585786 20.7989L3.41421 23.6273Z" fill="var(--icon-color, #0A0A0A)"/>
</svg>
