<svg width="80" height="80" fill="none" xmlns="http://www.w3.org/2000/svg">
<path fill-rule="evenodd" clip-rule="evenodd" d="M45.9515 15.2334C42.4581 18.2734 37.3915 18.4601 34.0281 15.2334C33.3683 14.766 32.6002 14.4748 31.7964 14.3873C30.9925 14.2998 30.1797 14.4189 29.4348 14.7334C27.9248 15.3468 26.9181 16.6001 26.8181 18.1568V18.2034L26.8115 18.2501C26.586 20.4467 25.6102 22.4984 24.0485 24.0594C22.4869 25.6205 20.4348 26.5955 18.2381 26.8201L18.1915 26.8268H18.1481C16.5881 26.9268 15.3381 27.9334 14.7215 29.4434C14.1081 30.9468 14.2381 32.7201 15.2715 34.1001C18.0715 37.4268 17.9248 42.3668 15.3248 45.8334L15.2815 45.8934L15.2315 45.9468C12.8081 48.8134 14.6615 52.9668 18.1381 53.1701L18.1881 53.1734L18.2381 53.1801C20.4306 53.4045 22.4791 54.3764 24.0397 55.9327C25.6002 57.489 26.5778 59.5349 26.8081 61.7268C27.2681 65.5234 31.3248 67.0501 34.0381 64.7601C37.3648 61.9168 42.3381 62.0501 45.8248 64.6668L45.8815 64.7101L45.9381 64.7568C48.8048 67.1801 52.9581 65.3301 53.1615 61.8534V61.8034L53.1681 61.7501C53.3934 59.5577 54.3661 57.5096 55.923 55.9496C57.4799 54.3897 59.5262 53.413 61.7181 53.1834C65.5115 52.7234 67.0415 48.6668 64.7515 45.9534C61.9081 42.6268 62.0415 37.6534 64.6581 34.1668L64.7015 34.1068L64.7481 34.0534C67.1715 31.1868 65.3215 27.0334 61.8448 26.8301L61.7915 26.8268L61.7415 26.8201C59.5496 26.595 57.5018 25.6227 55.942 24.0665C54.3821 22.5103 53.405 20.4648 53.1748 18.2734C52.7148 14.4834 48.6648 12.9534 45.9515 15.2301V15.2334ZM42.7081 11.4234C48.6581 6.39011 57.2548 10.1868 58.1415 17.7068L58.1448 17.7501C58.2541 18.7913 58.7154 19.7641 59.4523 20.5078C60.1893 21.2514 61.1579 21.7214 62.1981 21.8401C69.9815 22.3434 73.4381 31.4234 68.6215 37.2168C67.2781 39.0501 67.4181 41.3768 68.5548 42.7068L68.5648 42.7201C73.5981 48.6701 69.8048 57.2634 62.2815 58.1501L62.2381 58.1534C61.1969 58.2628 60.2241 58.724 59.4805 59.461C58.7368 60.198 58.2668 61.1666 58.1481 62.2068C57.6481 69.9901 48.5648 73.4468 42.7748 68.6301C40.9415 67.2868 38.6115 67.4268 37.2848 68.5634L37.2715 68.5768C31.3215 73.6101 22.7248 69.8134 21.8381 62.2934V62.2501C21.7288 61.2089 21.2676 60.2361 20.5306 59.4924C19.7936 58.7488 18.825 58.2788 17.7848 58.1601C9.99813 57.6568 6.54479 48.5768 11.3615 42.7834C12.7048 40.9501 12.5615 38.6234 11.4281 37.2934L11.3815 37.2434L11.3415 37.1901C10.3077 35.8345 9.64815 34.2311 9.42878 32.5405C9.20941 30.8499 9.43793 29.1313 10.0915 27.5568C11.3048 24.5801 14.0348 22.1001 17.7781 21.8434C18.8134 21.727 19.7784 21.2626 20.5154 20.5263C21.2523 19.7899 21.7175 18.8253 21.8348 17.7901C22.0915 14.0434 24.5748 11.3134 27.5515 10.1001C30.5315 8.88677 34.2381 9.08344 37.1848 11.3534L37.3148 11.4534L37.4281 11.5668C38.7281 12.8634 40.8881 13.0201 42.6815 11.4534L42.7148 11.4234H42.7081Z" fill="var(--icon-color, black)"/>
<path fill-rule="evenodd" clip-rule="evenodd" d="M32.6569 47.3333C31.6569 46.3333 31.6569 44.6667 32.6569 43.3333L43.3236 32.6667C44.3236 31.6667 45.9902 31.6667 47.3236 32.6667C48.3236 33.6667 48.3236 35.3333 47.3236 36.6667L36.6569 47.3333C35.3236 48.3333 33.6569 48.3333 32.6569 47.3333ZM45.3236 50C44.6569 49.3333 44.3236 48.6667 44.3236 47.6667C44.3236 46.6667 44.6569 46 45.3236 45.3333C45.9902 44.6667 46.9902 44.3333 47.6569 44.3333C49.3236 44.3333 50.9902 46 50.9902 47.6667C50.9902 48.6667 50.6569 49.3333 49.9902 50C49.3236 50.6667 48.6569 51 47.6569 51C46.6569 51 45.6569 50.6667 45.3236 50ZM29.9902 34.6667C29.3236 34 28.9902 33.3333 28.9902 32.3333C28.9902 31.3333 29.3236 30.6667 29.9902 30C30.6569 29.3333 31.3236 29 32.3236 29C33.9902 29 35.6569 30.6667 35.6569 32.3333C35.6569 33.3333 35.3236 34 34.6569 34.6667C33.9902 35.3333 32.9902 35.6667 32.3236 35.6667C31.3236 35.6667 30.6569 35.3333 29.9902 34.6667Z" fill="var(--icon-color, black)"/>
</svg>
