<svg width="24" height="24" fill="none" xmlns="http://www.w3.org/2000/svg">
<path fill-rule="evenodd" clip-rule="evenodd" d="M15.4286 4H8.57143C6.0467 4 4 6.0467 4 8.57143V15.4286C4 17.9533 6.0467 20 8.57143 20H15.4286C17.9533 20 20 17.9533 20 15.4286V8.57143C20 6.0467 17.9533 4 15.4286 4Z" fill="var(--icon-color, white)"/>
<path fill-rule="evenodd" clip-rule="evenodd" d="M12.0001 14.88C10.4095 14.88 9.12012 13.5906 9.12012 12C9.12012 10.4094 10.4095 9.12 12.0001 9.12C13.5907 9.12 14.8801 10.4094 14.8801 12C14.8801 12.7638 14.5767 13.4963 14.0366 14.0364C13.4965 14.5765 12.7639 14.88 12.0001 14.88Z" stroke="var(--icon-third-color, #0A0A0A)" stroke-linecap="round" stroke-linejoin="round"/>
<path d="M15.8399 7.2C15.3097 7.2 14.8799 7.6298 14.8799 8.16C14.8799 8.69019 15.3097 9.12 15.8399 9.12C16.3701 9.12 16.7999 8.69019 16.7999 8.16C16.7999 7.6298 16.3701 7.2 15.8399 7.2Z" fill="var(--icon-third-color, #0A0A0A)"/>
<path d="M15.8401 7.68C15.575 7.68 15.3601 7.8949 15.3601 8.16C15.3601 8.4251 15.575 8.64 15.8401 8.64C16.1052 8.64 16.3201 8.4251 16.3201 8.16C16.3201 7.8949 16.1052 7.68 15.8401 7.68Z" fill="var(--icon-sub-color, #0A0A0A)"/>
</svg>
