<svg width="81" height="80" fill="none" xmlns="http://www.w3.org/2000/svg">
<path fill-rule="evenodd" clip-rule="evenodd" d="M6.83203 27.8333C6.83203 19.4933 13.5754 12.3333 22.332 12.3333H48.332C56.6487 12.3333 63.432 18.6999 63.832 27.0466V27.1666V27.2499C63.8273 27.3594 63.8162 27.4684 63.7987 27.5766C63.7504 27.9212 63.6492 28.2562 63.4987 28.5699V39.8333C63.4987 48.1733 56.7554 55.3333 47.9987 55.3333H22.332C13.992 55.3333 6.83203 48.5899 6.83203 39.8333V27.8333ZM58.772 26.5233C58.1487 21.2566 53.7554 17.3333 48.332 17.3333H22.332C16.422 17.3333 11.832 22.1733 11.832 27.8333V39.8333C11.832 45.7433 16.672 50.3333 22.332 50.3333H47.9987C53.9087 50.3333 58.4987 45.4933 58.4987 39.8333V26.7999L58.772 26.5233ZM35.332 29.3333C32.712 29.3333 30.832 31.2133 30.832 33.8333C30.832 36.1999 32.7887 38.3333 35.332 38.3333C37.6987 38.3333 39.832 36.3766 39.832 33.8333C39.832 31.2133 37.952 29.3333 35.332 29.3333ZM25.832 33.8333C25.832 28.4533 29.952 24.3333 35.332 24.3333C40.712 24.3333 44.832 28.4533 44.832 33.8333C44.832 39.2899 40.2987 43.3333 35.332 43.3333C29.8754 43.3333 25.832 38.7999 25.832 33.8333Z" fill="var(--icon-color, #0A0A0A)"/>
<path fill-rule="evenodd" clip-rule="evenodd" d="M61.7446 24.7C68.9546 25.9 74.168 31.9466 74.168 39.5V52.5C74.1688 54.4919 73.7771 56.4645 73.0153 58.305C72.2534 60.1455 71.1362 61.8178 69.7277 63.2264C68.3192 64.6349 66.6469 65.752 64.8064 66.5139C62.9659 67.2758 60.9933 67.6675 59.0013 67.6666H32.3346C24.0413 67.6666 17.168 61.3 17.168 52.8333H22.168C22.168 58.3666 26.628 62.6666 32.3346 62.6666H59.0013C60.3367 62.6675 61.6591 62.4051 62.893 61.8945C64.1268 61.3839 65.2479 60.6351 66.1922 59.6908C67.1364 58.7466 67.8853 57.6255 68.3959 56.3916C68.9065 55.1577 69.1688 53.8353 69.168 52.5V39.5C69.168 34.3866 65.7146 30.4333 60.9246 29.6333L61.7446 24.7Z" fill="var(--icon-color, #0A0A0A)"/>
<path fill-rule="evenodd" clip-rule="evenodd" d="M35.332 29.3333C32.712 29.3333 30.832 31.2132 30.832 33.8332C30.832 36.1999 32.7887 38.3333 35.332 38.3333C37.952 38.3333 39.832 36.4532 39.832 33.8332C39.832 31.2899 37.6987 29.3333 35.332 29.3333ZM25.832 33.8332C25.832 28.4532 29.952 24.3333 35.332 24.3333C40.2987 24.3333 44.832 28.3766 44.832 33.8332C44.832 39.2132 40.712 43.3333 35.332 43.3333C29.8754 43.3333 25.832 38.7999 25.832 33.8332Z" fill="var(--icon-color, #0A0A0A)"/>
</svg>
