<svg width="24" height="24" xmlns="http://www.w3.org/2000/svg">
<path fill-rule="evenodd" clip-rule="evenodd" d="M6.10892 6.58747C6.95372 5.69755 7.25228 5.44795 7.61228 5.33179C7.86142 5.26651 8.1227 5.26288 8.37356 5.32123C8.7038 5.41723 8.79116 5.49019 9.87401 6.56923C10.8254 7.51675 10.9204 7.61947 11.0116 7.80475C11.186 8.12998 11.2133 8.51418 11.0865 8.86075C10.9905 9.12475 10.8542 9.29947 10.2772 9.87835L9.90089 10.2557C9.80211 10.3561 9.77888 10.5085 9.84329 10.6339C10.6795 12.0603 11.8656 13.2498 13.2897 14.0899C13.4537 14.1777 13.6556 14.1493 13.7889 14.0198L14.1508 13.6637C14.3745 13.4343 14.6114 13.2183 14.8603 13.0166C15.2512 12.7766 15.7382 12.7552 16.1486 12.96C16.3492 13.056 16.4155 13.1155 17.3966 14.0947C18.4084 15.1037 18.4372 15.1354 18.5486 15.3667C18.7581 15.7497 18.7559 16.2135 18.5428 16.5946C18.4343 16.8096 18.3681 16.8874 17.7988 17.4691C17.4551 17.8205 17.1316 18.1411 17.0798 18.1882C16.6101 18.577 16.0076 18.7677 15.3998 18.72C14.2877 18.6186 13.2113 18.2748 12.2462 17.713C10.1084 16.5803 8.28851 14.93 6.95276 12.913C6.66182 12.4908 6.40317 12.0472 6.179 11.5862C5.57764 10.5555 5.2671 9.38101 5.28044 8.18779C5.32635 7.56356 5.62571 6.98532 6.10892 6.58747Z" fill="var(--icon-color, white)"/>
</svg>
