<svg width="32" height="32" fill="none" xmlns="http://www.w3.org/2000/svg">
<path fill-rule="evenodd" clip-rule="evenodd" d="M8.14523 8.78331C9.27163 7.59675 9.66971 7.26395 10.1497 7.10907C10.4819 7.02203 10.8303 7.01719 11.1647 7.09499C11.6051 7.22299 11.7215 7.32027 13.1654 8.75899C14.4338 10.0223 14.5606 10.1593 14.6821 10.4063C14.9147 10.84 14.9511 11.3523 14.782 11.8143C14.654 12.1663 14.4722 12.3993 13.703 13.1711L13.2012 13.6742C13.0695 13.8081 13.0385 14.0114 13.1244 14.1786C14.2393 16.0804 15.8208 17.6664 17.7196 18.7866C17.9382 18.9036 18.2074 18.8658 18.3852 18.6931L18.8678 18.2182C19.166 17.9125 19.4819 17.6245 19.8137 17.3555C20.3349 17.0355 20.9842 17.007 21.5314 17.28C21.799 17.408 21.8873 17.4874 23.1954 18.793C24.5446 20.1382 24.583 20.1805 24.7314 20.489C25.0109 20.9996 25.0079 21.6181 24.7237 22.1261C24.5791 22.4128 24.4908 22.5165 23.7318 23.2922C23.2735 23.7607 22.8422 24.1882 22.773 24.2509C22.1469 24.7693 21.3435 25.0236 20.533 24.96C19.0503 24.8248 17.615 24.3665 16.3282 23.6173C13.4779 22.107 11.0513 19.9067 9.27035 17.2173C8.88243 16.6543 8.53756 16.063 8.23867 15.4483C7.43685 14.074 7.0228 12.508 7.04059 10.9171C7.1018 10.0848 7.50094 9.31376 8.14523 8.78331Z" fill="var(--icon-color, #AB8A44)"/>
</svg>
