<svg width="80" height="80" fill="none" xmlns="http://www.w3.org/2000/svg">
<path fill-rule="evenodd" clip-rule="evenodd" d="M30.8346 17.5C29.105 17.4978 27.3918 17.8369 25.7934 18.4978C24.1949 19.1587 22.7426 20.1285 21.5195 21.3515C20.2964 22.5746 19.3267 24.027 18.6658 25.6254C18.0049 27.2239 17.6658 28.937 17.668 30.6667V49C17.6658 50.7297 18.0049 52.4428 18.6658 54.0413C19.3267 55.6397 20.2964 57.0921 21.5195 58.3151C22.7426 59.5382 24.1949 60.508 25.7934 61.1689C27.3918 61.8298 29.105 62.1689 30.8346 62.1667H49.168C50.8977 62.1689 52.6108 61.8298 54.2092 61.1689C55.8077 60.508 57.26 59.5382 58.4831 58.3151C59.7062 57.0921 60.676 55.6397 61.3369 54.0413C61.9978 52.4428 62.3368 50.7297 62.3346 49V30.6667C62.3368 28.937 61.9978 27.2239 61.3369 25.6254C60.676 24.027 59.7062 22.5746 58.4831 21.3515C57.26 20.1285 55.8077 19.1587 54.2092 18.4978C52.6108 17.8369 50.8977 17.4978 49.168 17.5H30.8346ZM12.668 30.6667C12.6658 28.2804 13.1342 25.9171 14.0464 23.712C14.9586 21.5069 16.2966 19.5034 17.984 17.816C19.6713 16.1286 21.6749 14.7906 23.88 13.8784C26.085 12.9662 28.4483 12.4978 30.8346 12.5H49.168C51.5543 12.4978 53.9176 12.9662 56.1227 13.8784C58.3277 14.7906 60.3313 16.1286 62.0186 17.816C63.706 19.5034 65.0441 21.5069 65.9563 23.712C66.8684 25.9171 67.3368 28.2804 67.3346 30.6667V49C67.3368 51.3863 66.8684 53.7496 65.9563 55.9547C65.0441 58.1598 63.706 60.1633 62.0186 61.8507C60.3313 63.538 58.3277 64.8761 56.1227 65.7883C53.9176 66.7005 51.5543 67.1689 49.168 67.1667H30.8346C28.4483 67.1689 26.085 66.7005 23.88 65.7883C21.6749 64.8761 19.6713 63.538 17.984 61.8507C16.2966 60.1633 14.9586 58.1598 14.0464 55.9547C13.1342 53.7496 12.6658 51.3863 12.668 49V30.6667Z" fill="var(--icon-color, black)"/>
<path fill-rule="evenodd" clip-rule="evenodd" d="M39.8348 28.5C40.4978 28.5 41.1337 28.7634 41.6026 29.2322C42.0714 29.7011 42.3348 30.337 42.3348 31V40.6667C42.3348 41.2067 42.6181 41.95 43.1215 42.75L47.9348 47.5667C48.3764 48.0406 48.6168 48.6674 48.6054 49.3151C48.5939 49.9627 48.3316 50.5807 47.8735 51.0387C47.4155 51.4968 46.7975 51.7591 46.1499 51.7706C45.5022 51.782 44.8754 51.5416 44.4015 51.1L39.2248 45.9267L39.0881 45.72C38.3381 44.5967 37.3348 42.7533 37.3348 40.6667V31C37.3348 30.337 37.5982 29.7011 38.067 29.2322C38.5359 28.7634 39.1718 28.5 39.8348 28.5Z" fill="var(--icon-color, black)"/>
</svg>
