<svg width="24" height="24" fill="none" xmlns="http://www.w3.org/2000/svg">
<path id="Path 3" fill-rule="evenodd" clip-rule="evenodd" d="M3.20991 11.287C7.93436 9.02907 11.0847 7.54048 12.661 6.82126C17.1617 4.76776 18.0969 4.41104 18.7064 4.39926C18.8405 4.39667 19.1402 4.43312 19.3344 4.60596C19.4984 4.75189 19.5435 4.94903 19.5651 5.0874C19.5867 5.22577 19.6135 5.54097 19.5922 5.78725C19.3483 8.59834 18.293 15.4201 17.7561 18.5686C17.5289 19.9008 17.0816 20.3475 16.6485 20.3912C15.7074 20.4862 14.9927 19.7089 14.0812 19.0535C12.6549 18.0278 11.8491 17.3893 10.4645 16.3885C8.86446 15.2318 9.90172 14.5961 10.8136 13.5571C11.0522 13.2852 15.1989 9.14782 15.2791 8.77249C15.2892 8.72555 15.2985 8.55057 15.2037 8.45818C15.1089 8.36579 14.9691 8.39738 14.8682 8.42251C14.7251 8.45813 12.4465 10.1103 8.03228 13.3789C7.38549 13.8661 6.79966 14.1035 6.27477 14.0911C5.69613 14.0773 4.58304 13.7322 3.75558 13.4371C2.74066 13.0752 1.93402 12.8839 2.00426 12.2692C2.04085 11.9491 2.44273 11.6217 3.20991 11.287Z" fill="var(--icon-color, #AB8A44)"/>
</svg>
