<svg width="24" height="24" fill="none" xmlns="http://www.w3.org/2000/svg">
<path fill-rule="evenodd" clip-rule="evenodd" d="M3.20991 11.2871C7.93436 9.02908 11.0847 7.54049 12.661 6.82128C17.1617 4.76777 18.0969 4.41106 18.7064 4.39928C18.8405 4.39669 19.1402 4.43314 19.3344 4.60597C19.4984 4.75191 19.5435 4.94905 19.5651 5.08742C19.5867 5.22578 19.6135 5.54098 19.5922 5.78727C19.3483 8.59836 18.293 15.4201 17.7561 18.5686C17.5289 19.9008 17.0816 20.3475 16.6485 20.3912C15.7074 20.4862 14.9927 19.709 14.0812 19.0535C12.6549 18.0278 11.8491 17.3894 10.4645 16.3885C8.86446 15.2318 9.90172 14.5961 10.8136 13.5572C11.0522 13.2853 15.1989 9.14783 15.2791 8.7725C15.2892 8.72556 15.2985 8.55059 15.2037 8.45819C15.1089 8.3658 14.9691 8.3974 14.8682 8.42252C14.7251 8.45814 12.4465 10.1103 8.03228 13.3789C7.38549 13.8661 6.79966 14.1035 6.27477 14.0911C5.69613 14.0774 4.58304 13.7322 3.75558 13.4371C2.74066 13.0752 1.93402 12.8839 2.00426 12.2692C2.04085 11.9491 2.44273 11.6217 3.20991 11.2871Z" fill="var(--icon-color, white)"/>
</svg>
