<svg width="24" height="24" viewBox="0 0 24 24" fill="none" xmlns="http://www.w3.org/2000/svg">
<g id="Frame" clip-path="url(#clip0_1285_36614)">
<path id="Vector" d="M21.3661 7.2775C21.5043 6.84688 21.3661 6.54544 20.7215 6.54544H18.5729C18.0204 6.54544 17.7748 6.81817 17.6367 7.1196C17.6367 7.1196 16.5471 9.61721 14.997 11.2249C14.4905 11.6985 14.2756 11.8421 13.9994 11.8421C13.8613 11.8421 13.6617 11.6985 13.6617 11.2679V7.2775C13.6617 6.76075 13.5083 6.54544 13.0478 6.54544H9.67142C9.33377 6.54544 9.11891 6.78946 9.11891 7.00477C9.11891 7.49281 9.88628 7.60764 9.97836 8.95692V11.9139C9.97836 12.5598 9.85559 12.6746 9.57933 12.6746C8.858 12.6746 7.07771 10.177 6.03408 7.30621C5.81922 6.77511 5.6197 6.54544 5.0672 6.54544H2.91856C2.30466 6.54544 2.18188 6.81817 2.18188 7.1196C2.18188 7.6507 2.90321 10.2918 5.57366 13.7799C7.35396 16.1627 9.85559 17.4545 12.127 17.4545C13.4929 17.4545 13.6617 17.1674 13.6617 16.6794V14.8708C13.6617 14.2966 13.7845 14.1818 14.2296 14.1818C14.5519 14.1818 15.0891 14.3253 16.3629 15.4737C17.8209 16.8373 18.0664 17.4545 18.8799 17.4545H21.0285C21.6424 17.4545 21.9493 17.1674 21.7652 16.6076C21.5657 16.0478 20.875 15.2296 19.9542 14.2536C19.4477 13.6938 18.6957 13.1052 18.4808 12.8038C18.1585 12.4162 18.2506 12.244 18.4808 11.9139C18.4808 11.8995 21.1052 8.45453 21.3661 7.2775Z" fill="#AB8A44"/>
</g>
<defs>
<clipPath id="clip0_1285_36614">
<rect width="24" height="24" fill="white"/>
</clipPath>
</defs>
</svg>
