<svg width="24" height="24" fill="none" xmlns="http://www.w3.org/2000/svg">
<path fill-rule="evenodd" clip-rule="evenodd" d="M17.4412 18.7227C19.6534 18.8032 21.5135 17.0784 21.5999 14.8664V9.13903C21.5135 6.92706 19.6534 5.20217 17.4412 5.28271H6.55862C4.34643 5.20217 2.48628 6.92706 2.3999 9.13903V14.8664C2.48628 17.0784 4.34643 18.8032 6.55862 18.7227H17.4412Z" fill="var(--icon-color, white)" stroke="var(--icon-color, white)" stroke-linecap="round" stroke-linejoin="round"/>
<path fill-rule="evenodd" clip-rule="evenodd" d="M11.5278 9.29072L14.5623 11.3528C14.7589 11.4676 14.8798 11.6781 14.8798 11.9057C14.8798 12.1334 14.7589 12.344 14.5623 12.4587L11.5278 14.7147C10.9518 15.1054 10.0801 14.7723 10.0801 14.1617V9.84176C10.0801 9.23408 10.9527 8.9 11.5278 9.29072Z" stroke="var(--icon-sub-color, #AB8A44)" stroke-linecap="round" stroke-linejoin="round"/>
</svg>
