<svg width="233" height="40" viewBox="0 0 233 40" fill="none" xmlns="http://www.w3.org/2000/svg">
<g clip-path="url(#clip0_472_8338)">
<path fill-rule="evenodd" clip-rule="evenodd" d="M36.8364 13.9174L31.6749 10.3468L8.80419 26.1379V39.0825H0V21.882L31.6749 0L44.3124 8.75501L56.9778 0.00552715L71.7785 10.2197H57.1628L34.1127 26.1379V39.0825H25.3085V21.882L36.8364 13.9174Z" fill="#FBDA94" stroke="#FBDA94" stroke-width="0.02" stroke-miterlimit="10"/>
<path fill-rule="evenodd" clip-rule="evenodd" d="M32.4539 37.452V25.2867L56.6416 8.58919H66.5274L56.9778 2.00082L44.3123 10.7448L31.6749 2.00082L1.65881 22.7276V37.452H7.15092V25.2867L31.6749 8.35152L39.7169 13.9229L26.9674 22.7276V37.452H32.4539Z" fill="#FBDA94" stroke="#FBDA94" stroke-width="0.02" stroke-miterlimit="10"/>
<path fill-rule="evenodd" clip-rule="evenodd" d="M128.723 25.1095V39.7011H124.026V20.6601H131.217V16.559H135.896V20.6601H138.681V25.1095H135.896V34.3066C135.896 34.5664 135.919 35.1468 136.042 35.4342C136.07 35.4342 136.104 35.4342 136.126 35.4342C136.406 35.4342 136.776 35.3623 137.051 35.3126L138.782 34.992L138.911 39.2037L137.992 39.6072C137.303 39.9112 136.485 39.9886 135.734 39.9886C132.472 39.9886 131.273 37.4184 131.217 34.5498V25.0984H128.723V25.1095ZM91.6903 30.3934L94.5821 20.6601H99.4689L93.4556 39.7011H89.9194L83.8724 20.6601H88.7593L91.6959 30.3934H91.6903ZM223.266 31.8139C223.322 32.7811 223.529 33.8368 224.123 34.583C224.683 35.2849 225.434 35.5171 226.325 35.5171C227.452 35.5171 228.349 35.1578 229.077 34.3066L230.271 32.9138L232.989 36.3296L232.316 37.236C230.859 39.2037 228.679 39.9996 226.253 39.9996C224.056 39.9996 222.072 39.2977 220.609 37.6285C219.09 35.8929 218.586 33.6102 218.586 31.3717V29.4096C218.586 27.1379 219.029 24.7944 220.463 22.9594C221.831 21.2073 223.731 20.3672 225.967 20.3672C228.018 20.3672 229.879 21.0249 231.184 22.6278C232.569 24.3246 232.938 26.6681 232.938 28.785V31.8139H223.266ZM213.873 34.268C213.873 33.964 213.722 33.7484 213.492 33.5494C212.847 32.9746 211.71 32.444 210.925 32.0903C209.888 31.626 208.633 31.0567 207.725 30.3768C207.058 29.8794 206.475 29.2769 206.083 28.5418C205.68 27.7957 205.517 26.9666 205.517 26.1209C205.517 24.4849 206.134 23.0534 207.366 21.9535C208.627 20.8259 210.202 20.3561 211.883 20.3561C213.654 20.3561 215.319 20.837 216.625 22.0529C217.908 23.2523 218.48 24.8165 218.48 26.5465V28.0278H213.8V26.5465C213.8 26.0657 213.666 25.6843 213.313 25.3527C212.92 24.9768 212.421 24.8663 211.883 24.8663C211.424 24.8663 210.886 24.9381 210.527 25.2476C210.264 25.4743 210.18 25.7174 210.18 26.0601C210.18 26.2591 210.213 26.4139 210.365 26.552C210.88 27.0274 212.208 27.6464 212.831 27.9394C213.907 28.4036 215.28 29.0061 216.243 29.7246C216.933 30.2387 217.532 30.8632 217.947 31.6094C218.39 32.3998 218.569 33.2786 218.569 34.174C218.569 35.8708 217.958 37.3632 216.636 38.4686C215.319 39.574 213.677 39.9941 211.973 39.9941C210.157 39.9941 208.431 39.5187 207.053 38.3138C205.708 37.1421 205.046 35.6 205.046 33.8313V32.35H209.67L209.743 33.7595C209.765 34.2403 209.877 34.7212 210.258 35.0473C210.69 35.4231 211.43 35.495 211.979 35.495C212.528 35.495 213.088 35.4121 213.503 35.0804C213.783 34.8594 213.879 34.6106 213.879 34.2569L213.873 34.268ZM199.678 39.4579C198.82 39.8227 197.867 39.9996 196.836 39.9996C195.004 39.9996 193.378 39.3585 192.28 37.8827C191.154 36.3683 190.845 34.3785 190.845 32.549V20.6656H195.508V32.5048C195.508 33.251 195.586 34.3453 196.029 34.981C196.287 35.3513 196.595 35.4618 197.049 35.4618C198.433 35.4618 199.184 34.9257 199.599 33.6876V20.6601H204.295V39.7011H199.683V39.4579H199.678ZM174.834 29.3654C174.834 27.0937 175.305 24.7834 176.751 22.9539C178.135 21.2018 180.046 20.3616 182.288 20.3616C184.529 20.3616 186.44 21.1741 187.83 22.9207C189.282 24.7391 189.758 27.0495 189.758 29.3212V31.029C189.758 33.3062 189.299 35.6497 187.825 37.4682C186.435 39.1816 184.535 39.9996 182.321 39.9996C180.108 39.9996 178.23 39.2148 176.835 37.5234C175.378 35.7658 174.879 33.5163 174.84 31.2943V29.3654H174.834ZM165.313 21.0691C166.187 20.5938 167.156 20.3672 168.176 20.3672C172.452 20.3672 173.977 23.6503 174.05 27.4253V39.7067H169.387V27.6298C169.387 26.9721 169.314 25.8777 168.905 25.3195C168.641 24.9658 168.171 24.905 167.756 24.905C167.229 24.905 166.809 25.1205 166.428 25.4743C165.901 25.9662 165.548 26.6294 165.313 27.2982V39.7011H160.633V13.9115H165.313V21.0636V21.0691ZM143.17 31.8139H152.843V28.785C152.843 26.6681 152.473 24.3246 151.089 22.6278C149.783 21.0249 147.928 20.3672 145.872 20.3672C143.641 20.3672 141.736 21.2073 140.368 22.9594C138.934 24.7999 138.491 27.1379 138.491 29.4096V31.3773C138.513 33.6157 139.001 35.8985 140.514 37.6285C141.977 39.2977 143.955 39.9996 146.157 39.9996C148.584 39.9996 150.764 39.2092 152.221 37.236L152.894 36.3296L150.181 32.9138L148.988 34.3066C148.259 35.1578 147.362 35.5171 146.236 35.5171C145.345 35.5171 144.594 35.2849 144.033 34.583C143.439 33.8368 143.226 32.7811 143.176 31.8139H143.17ZM123.786 17.5096C123.786 18.1674 123.987 18.7864 124.408 19.2949C124.901 19.8974 125.612 20.1958 126.391 20.1958C127.17 20.1958 127.871 19.9029 128.37 19.3115C128.801 18.7975 129.009 18.1729 129.009 17.5096C129.009 16.8464 128.801 16.2273 128.375 15.7133C127.882 15.1108 127.17 14.8069 126.386 14.8069C125.601 14.8069 124.884 15.1164 124.391 15.7244C123.982 16.2384 123.78 16.8519 123.78 17.5041L123.786 17.5096ZM119.033 27.2982V39.7011H114.354V20.6601H118.983V20.8425C119.655 20.533 120.412 20.3616 121.264 20.3616C121.869 20.3616 122.485 20.4501 123.012 20.7485L123.791 21.1852L123.713 25.4466L121.981 25.1482C121.723 25.1039 121.449 25.0652 121.185 25.0652C120.681 25.0652 120.283 25.209 119.924 25.5627C119.459 26.0214 119.19 26.6681 119.028 27.2982H119.033ZM98.292 29.3654V31.2943C98.3313 33.5163 98.8356 35.7658 100.287 37.5234C101.683 39.2148 103.582 39.9996 105.774 39.9996C107.965 39.9996 109.887 39.1816 111.277 37.4682C112.751 35.6497 113.21 33.3062 113.21 31.029V29.3212C113.21 27.0495 112.734 24.7391 111.283 22.9207C109.893 21.1797 107.97 20.3616 105.74 20.3616C103.51 20.3616 101.582 21.2018 100.197 22.9539C98.7516 24.7834 98.2808 27.0882 98.2808 29.3654H98.292ZM80.4315 39.0489L80.622 39.7067H85.0381V37.7832L84.9484 37.5345C84.6402 36.6999 84.601 35.39 84.601 34.5111V26.6239C84.601 24.9105 84.1582 23.2413 82.8805 22.0143C81.5971 20.7817 79.8542 20.3727 78.1113 20.3727C76.3684 20.3727 74.6479 20.9199 73.3085 22.1414C72.0084 23.3242 71.319 24.8331 71.319 26.5797V28.0499L74.8721 28.0831C74.2556 28.3484 73.6784 28.6911 73.1516 29.1388C71.6665 30.3934 70.994 32.0903 70.994 34.0082C70.994 35.6332 71.4199 37.2084 72.6024 38.3912C73.7737 39.5574 75.3204 40.0051 76.9569 40.0051C78.1281 40.0051 79.2434 39.7232 80.2689 39.154C80.325 39.1208 80.3866 39.0876 80.4427 39.0545L80.4315 39.0489ZM75.9985 27.6906V26.5852C75.9985 26.0988 76.133 25.7119 76.5029 25.3803C76.9344 24.9934 77.4668 24.8718 78.0385 24.8718C78.5092 24.8718 79.2097 24.9271 79.5852 25.2532C79.8991 25.524 79.9383 26.2425 79.9383 26.6128V27.3756H78.6381C77.7414 27.3756 76.8504 27.4696 75.9985 27.6906ZM61.8872 29.6307V39.7067H57.1628V15.0998H71.588V19.6707H61.8872V25.0542H70.3215V29.6251H61.8872V29.6307ZM223.445 27.3037H228.175C228.085 26.6571 227.906 25.9883 227.553 25.5295C227.16 25.0155 226.6 24.8773 225.967 24.8773C225.216 24.8773 224.594 25.0652 224.129 25.6677C223.787 26.1154 223.574 26.7013 223.445 27.3037ZM179.53 31.029C179.53 32.1897 179.693 33.566 180.393 34.5443C180.881 35.2241 181.481 35.506 182.321 35.506C183.162 35.506 183.767 35.2739 184.249 34.6051C184.933 33.6489 185.084 32.2119 185.084 31.0788V29.3709C185.084 28.2047 184.916 26.8284 184.216 25.8501C183.728 25.1758 183.134 24.8828 182.293 24.8828C181.453 24.8828 180.903 25.1758 180.421 25.828C179.721 26.7787 179.542 28.1273 179.53 29.2604V31.0346V31.029ZM143.35 27.3037C143.479 26.7013 143.686 26.1099 144.033 25.6677C144.499 25.0652 145.121 24.8773 145.872 24.8773C146.505 24.8773 147.065 25.0155 147.458 25.5295C147.811 25.9883 147.99 26.6571 148.08 27.3037H143.35ZM102.994 31.029V29.2548C103.005 28.1218 103.184 26.7731 103.885 25.8225C104.361 25.1703 104.939 24.8773 105.757 24.8773C106.575 24.8773 107.191 25.1703 107.679 25.8446C108.38 26.8229 108.548 28.1991 108.548 29.3654V31.0733C108.548 32.2063 108.396 33.6489 107.713 34.6051C107.236 35.2739 106.603 35.506 105.785 35.506C104.967 35.506 104.345 35.2241 103.857 34.5443C103.162 33.5715 102.994 32.1897 102.994 31.029ZM79.9383 33.8258C79.7029 34.279 79.3779 34.6438 78.9351 34.9367C78.3971 35.296 77.8087 35.4397 77.1642 35.4397C75.9761 35.4397 75.6847 35.0141 75.6847 33.8645C75.6847 33.262 75.8416 32.7701 76.3124 32.3721C76.94 31.8471 78.0217 31.731 78.8006 31.7199H79.9383V33.8202V33.8258Z" fill="#FBDA94" stroke="#FBDA94" stroke-width="0.02" stroke-miterlimit="10"/>
<path fill-rule="evenodd" clip-rule="evenodd" d="M91.707 35.6281L95.714 22.1364H97.4289L92.3515 38.2148H91.0233L85.9179 22.1364H87.6328L91.7014 35.6281H91.707ZM225.972 23.3855C224.655 23.3855 223.647 23.8442 222.935 24.7618C222.229 25.6793 221.836 27.0168 221.769 28.78H229.766V28.3489C229.688 25.0381 228.421 23.3855 225.972 23.3855ZM226.258 38.5078C224.342 38.5078 222.84 37.8887 221.752 36.6507C220.665 35.4126 220.116 33.6494 220.094 31.3612V29.399C220.094 27.0389 220.615 25.1929 221.663 23.8498C222.705 22.5067 224.145 21.8379 225.972 21.8379C227.799 21.8379 229.088 22.4072 230.019 23.5458C230.949 24.6844 231.42 26.4254 231.442 28.7745V30.3221H221.758V31.2285C221.758 33.0691 222.156 34.4951 222.957 35.4955C223.759 36.4959 224.885 36.9989 226.337 36.9989C227.945 36.9989 229.245 36.4185 230.237 35.2578L231.111 36.3577C230.047 37.7948 228.433 38.5133 226.258 38.5133V38.5078ZM215.386 34.2574C215.386 33.5665 215.095 32.9585 214.512 32.439C213.929 31.9194 212.943 31.3501 211.553 30.7311C210.163 30.112 209.188 29.598 208.639 29.1835C208.084 28.7745 207.68 28.3268 207.417 27.8404C207.153 27.354 207.025 26.7792 207.025 26.1159C207.025 24.8778 207.479 23.8553 208.381 23.0483C209.283 22.2414 210.454 21.8379 211.889 21.8379C213.436 21.8379 214.669 22.269 215.593 23.1312C216.518 23.9935 216.978 25.1321 216.978 26.547H215.308C215.308 25.635 214.994 24.8778 214.36 24.2809C213.727 23.684 212.903 23.38 211.889 23.38C210.875 23.38 210.124 23.6287 209.546 24.1206C208.969 24.6181 208.678 25.2592 208.678 26.0551C208.678 26.6963 208.896 27.2213 209.339 27.6304C209.782 28.0394 210.735 28.5865 212.203 29.2774C213.722 29.9296 214.764 30.4713 215.336 30.8969C215.907 31.3225 216.339 31.7978 216.63 32.3174C216.922 32.8369 217.067 33.456 217.067 34.169C217.067 35.4955 216.602 36.5512 215.666 37.336C214.73 38.1209 213.503 38.5078 211.973 38.5078C210.353 38.5078 209.048 38.0711 208.05 37.1979C207.053 36.3246 206.548 35.2025 206.548 33.8263H208.235C208.286 34.8267 208.622 35.6005 209.249 36.1532C209.877 36.7004 210.785 36.9768 211.967 36.9768C212.993 36.9768 213.817 36.728 214.439 36.2361C215.061 35.7387 215.375 35.0809 215.375 34.2574H215.386ZM201.14 36.2914C200.215 37.7672 198.786 38.5023 196.847 38.5023C195.373 38.5023 194.258 37.9993 193.502 36.9878C192.751 35.9763 192.37 34.4895 192.358 32.5274V22.1253H194.017V32.4832C194.017 33.9368 194.281 35.0423 194.802 35.794C195.323 36.5456 196.08 36.9215 197.06 36.9215C199.167 36.9215 200.518 35.91 201.112 33.8926V22.1253H202.799V38.2038H201.174L201.146 36.2859L201.14 36.2914ZM178.028 31.0185C178.028 32.8701 178.41 34.3293 179.166 35.3849C179.923 36.4462 180.976 36.9768 182.321 36.9768C183.666 36.9768 184.748 36.4683 185.476 35.4457C186.205 34.4232 186.575 32.9641 186.586 31.0627V29.3548C186.586 27.5032 186.205 26.0441 185.443 24.9773C184.681 23.9106 183.633 23.38 182.293 23.38C180.954 23.38 179.968 23.8995 179.205 24.9386C178.443 25.9777 178.051 27.4093 178.028 29.2332V31.0185ZM176.342 29.3548C176.342 27.0389 176.874 25.2039 177.939 23.8553C179.004 22.5067 180.455 21.8324 182.293 21.8324C184.131 21.8324 185.594 22.4956 186.653 23.8221C187.713 25.1487 188.251 26.9781 188.256 29.3051V31.013C188.256 33.3731 187.724 35.2081 186.653 36.5235C185.583 37.839 184.143 38.4967 182.321 38.4967C180.5 38.4967 179.06 37.8556 178 36.5678C176.936 35.2799 176.381 33.5057 176.342 31.2506V29.3493V29.3548ZM163.816 24.6623C164.298 23.8 164.909 23.1147 165.649 22.6062C166.389 22.0977 167.235 21.8434 168.187 21.8434C171.029 21.8434 172.486 23.7116 172.559 27.4424V38.2148H170.9V27.6193C170.889 26.1822 170.631 25.121 170.132 24.4412C169.628 23.7558 168.843 23.4187 167.767 23.4187C166.893 23.4187 166.108 23.7448 165.408 24.3914C164.713 25.0381 164.18 25.928 163.816 27.0555V38.2148H162.146V15.3932H163.816V24.6623ZM145.877 23.3855C144.56 23.3855 143.551 23.8442 142.84 24.7618C142.134 25.6793 141.741 27.0168 141.674 28.78H149.671V28.3489C149.593 25.0381 148.326 23.3855 145.877 23.3855ZM146.163 38.5078C144.246 38.5078 142.744 37.8887 141.657 36.6507C140.57 35.4126 140.021 33.6494 139.998 31.3612V29.399C139.998 27.0389 140.52 25.1929 141.568 23.8498C142.61 22.5067 144.05 21.8379 145.877 21.8379C147.704 21.8379 148.993 22.4072 149.923 23.5458C150.854 24.6844 151.324 26.4254 151.347 28.7745V30.3221H141.663V31.2285C141.663 33.0691 142.061 34.4951 142.862 35.4955C143.664 36.4959 144.79 36.9989 146.241 36.9989C147.85 36.9989 149.15 36.4185 150.142 35.2578L151.016 36.3577C149.951 37.7948 148.337 38.5133 146.163 38.5133V38.5078ZM134.4 18.0352V22.1364H137.185V23.6232H134.4V34.3071C134.4 35.1915 134.534 35.8437 134.798 36.2748C135.061 36.7059 135.509 36.9215 136.132 36.9215C136.401 36.9215 136.804 36.8717 137.336 36.7723L137.381 38.2591C137 38.4249 136.451 38.5133 135.739 38.5133C133.783 38.5133 132.775 37.1868 132.724 34.5338V23.6287H130.208V22.1419H132.724V18.0407H134.394L134.4 18.0352ZM125.299 17.4991C125.299 17.1619 125.394 16.8745 125.584 16.6368C125.775 16.3992 126.044 16.2776 126.397 16.2776C126.75 16.2776 127.019 16.3936 127.215 16.6368C127.411 16.8745 127.507 17.1619 127.507 17.4991C127.507 17.8362 127.411 18.1181 127.215 18.3558C127.019 18.5879 126.744 18.704 126.397 18.704C126.05 18.704 125.775 18.5879 125.584 18.3558C125.394 18.1236 125.299 17.8362 125.299 17.4991ZM127.226 38.2093H125.54V22.1308H127.226V38.2093ZM122.256 23.6784C121.852 23.6121 121.505 23.5734 121.202 23.5734C120.277 23.5734 119.504 23.8829 118.876 24.5075C118.249 25.1321 117.806 25.9998 117.542 27.1053V38.2038H115.872V22.1253H117.514L117.542 24.5296C118.333 22.7278 119.582 21.8268 121.28 21.8268C121.723 21.8268 122.059 21.8932 122.289 22.0203L122.261 23.6674L122.256 23.6784ZM101.498 31.0185C101.498 32.8701 101.879 34.3293 102.635 35.3849C103.392 36.4462 104.445 36.9768 105.79 36.9768C107.135 36.9768 108.217 36.4683 108.946 35.4457C109.674 34.4232 110.044 32.9641 110.055 31.0627V29.3548C110.055 27.5032 109.674 26.0441 108.912 24.9773C108.15 23.9106 107.102 23.38 105.762 23.38C104.423 23.38 103.437 23.8995 102.674 24.9386C101.912 25.9777 101.52 27.4093 101.498 29.2332V31.0185ZM99.8107 29.3548C99.8107 27.0389 100.343 25.2039 101.408 23.8553C102.473 22.5067 103.924 21.8324 105.762 21.8324C107.601 21.8324 109.063 22.4956 110.122 23.8221C111.182 25.1487 111.72 26.9781 111.725 29.3051V31.013C111.725 33.3731 111.193 35.2081 110.122 36.5235C109.052 37.839 107.606 38.4967 105.79 38.4967C103.975 38.4967 102.529 37.8556 101.47 36.5678C100.405 35.2799 99.8555 33.5057 99.8107 31.2506V29.3493V29.3548ZM77.1754 36.916C78.1617 36.916 79.0304 36.6617 79.7869 36.1587C80.5435 35.6558 81.0983 34.9815 81.4514 34.1358V30.2281H78.8006C77.2762 30.2502 76.1218 30.5818 75.3484 31.2285C74.575 31.8752 74.1883 32.7485 74.1883 33.8484C74.1883 35.8879 75.1803 36.9104 77.1698 36.9104L77.1754 36.916ZM81.7708 38.2093C81.6195 37.6953 81.5186 36.9491 81.4682 35.9819C80.9638 36.7833 80.3193 37.4079 79.5347 37.8445C78.7445 38.2867 77.8871 38.5078 76.968 38.5078C75.5614 38.5078 74.4685 38.1154 73.684 37.336C72.8994 36.5512 72.5071 35.4402 72.5071 33.9921C72.5071 32.4169 73.0507 31.1677 74.1435 30.2502C75.2307 29.3272 76.7382 28.8629 78.6549 28.8519H81.457V26.6078C81.457 25.4582 81.1656 24.6346 80.5883 24.1317C80.0111 23.6342 79.1649 23.38 78.0496 23.38C77.0129 23.38 76.1666 23.6784 75.5053 24.2698C74.844 24.8612 74.5134 25.6295 74.5134 26.5747L72.8433 26.5581C72.8433 25.2426 73.3477 24.1261 74.3509 23.2086C75.354 22.2911 76.615 21.8324 78.1337 21.8324C79.7701 21.8324 81.0086 22.2358 81.8549 23.0483C82.7011 23.8608 83.1214 25.0436 83.1214 26.5968V34.484C83.1214 36.0593 83.2671 37.2365 83.5586 38.0214V38.1983H81.782L81.7708 38.2093ZM68.8363 28.1333H60.402V38.2093H58.6871V16.5816H70.1085V18.1844H60.4076V26.536H68.8419V28.1388L68.8363 28.1333Z" fill="#FBDA94" stroke="#FBDA94" stroke-width="0.02" stroke-miterlimit="10"/>
</g>
<defs>
<clipPath id="clip0_472_8338">
<rect width="233" height="40" fill="white"/>
</clipPath>
</defs>
</svg>
