<?xml version="1.0" encoding="utf-8"?><svg viewBox="0 0 81 80" xmlns="http://www.w3.org/2000/svg" xmlns:xlink="http://www.w3.org/1999/xlink"><style>:root>svg{display:none}:root>svg:target{display:block}</style><svg fill="none" viewBox="0 0 17 15" id="arrow" xmlns="http://www.w3.org/2000/svg"><path d="M1 6.5a1 1 0 0 0 0 2v-2Zm15.707 1.707a1 1 0 0 0 0-1.414L10.343.429A1 1 0 1 0 8.93 1.843L14.586 7.5l-5.657 5.657a1 1 0 0 0 1.414 1.414l6.364-6.364ZM1 8.5h15v-2H1v2Z" fill="var(--icon-color, #0A0A0A)"/></svg><svg fill="none" viewBox="0 0 32 32" id="arrow-slider" xmlns="http://www.w3.org/2000/svg"><path d="M12 25.333 20 16l-8-9.334" stroke="var(--icon-color, #0A0A0A)" stroke-width="2" stroke-linecap="round" stroke-linejoin="round"/></svg><svg fill="none" viewBox="0 0 24 25" id="arrow-up" xmlns="http://www.w3.org/2000/svg"><path d="M.586 20.799a2 2 0 1 0 2.828 2.828L.586 20.8ZM23.799 2.414a2 2 0 0 0-2-2h-18a2 2 0 0 0 0 4h16v16a2 2 0 1 0 4 0v-18ZM3.414 23.627l19.8-19.799L20.383 1 .587 20.799l2.828 2.828Z" fill="var(--icon-color, #0A0A0A)"/></svg><svg viewBox="0 0 30 40" id="badge" xmlns="http://www.w3.org/2000/svg"><path d="M0 0h30v40l-15-6.857L0 40V0Z" fill="var(--icon-color, #FBDA94)"/></svg><svg fill="none" viewBox="0 0 32 32" id="burger" xmlns="http://www.w3.org/2000/svg"><path d="M6.667 16h20M6.667 22.667h20M6.667 9.333h20" stroke="var(--icon-color, white)" stroke-width="2" stroke-linecap="round"/></svg><svg fill="none" viewBox="0 0 24 24" id="check-mark" xmlns="http://www.w3.org/2000/svg"><path d="m20.333 6-12 12L3 12.667" stroke="var(--icon-color, #0A0A0A)" stroke-width="1.5" stroke-linecap="round" stroke-linejoin="round"/></svg><svg fill="none" viewBox="0 0 32 32" id="close" xmlns="http://www.w3.org/2000/svg"><path d="m9 9 14.142 14.142M9 23.142 23.142 9" stroke="var(--icon-color, white)" stroke-width="2" stroke-linecap="round"/></svg><svg fill="none" viewBox="0 0 80 80" id="discount" xmlns="http://www.w3.org/2000/svg"><path fill-rule="evenodd" clip-rule="evenodd" d="M45.952 15.233c-3.494 3.04-8.56 3.227-11.924 0a4.75 4.75 0 0 0-4.593-.5c-1.51.614-2.517 1.867-2.617 3.424v.046l-.007.047a9.6 9.6 0 0 1-8.573 8.57l-.046.007h-.044c-1.56.1-2.81 1.106-3.426 2.616-.614 1.504-.484 3.277.55 4.657 2.8 3.327 2.653 8.267.053 11.733l-.043.06-.05.054c-2.424 2.866-.57 7.02 2.906 7.223l.05.003.05.007a9.6 9.6 0 0 1 8.57 8.547c.46 3.796 4.517 5.323 7.23 3.033 3.327-2.843 8.3-2.71 11.787-.093l.056.043.057.047c2.867 2.423 7.02.573 7.223-2.904v-.05l.007-.053a9.6 9.6 0 0 1 8.55-8.567c3.793-.46 5.323-4.516 3.033-7.23-2.843-3.326-2.71-8.3-.093-11.786l.043-.06.047-.054c2.423-2.866.573-7.02-2.903-7.223l-.053-.003-.05-.007a9.6 9.6 0 0 1-8.567-8.547c-.46-3.79-4.51-5.32-7.223-3.043v.003Zm-3.244-3.81c5.95-5.033 14.547-1.236 15.434 6.284l.003.043a4.6 4.6 0 0 0 4.053 4.09c7.783.503 11.24 9.583 6.423 15.377-1.343 1.833-1.203 4.16-.066 5.49l.01.013c5.033 5.95 1.24 14.543-6.283 15.43l-.044.003a4.6 4.6 0 0 0-4.09 4.054c-.5 7.783-9.583 11.24-15.373 6.423-1.834-1.343-4.163-1.203-5.49-.067l-.013.014c-5.95 5.033-14.547 1.236-15.434-6.284v-.043a4.6 4.6 0 0 0-4.053-4.09c-7.787-.503-11.24-9.583-6.424-15.377 1.344-1.833 1.2-4.16.067-5.49l-.046-.05-.04-.053a9.733 9.733 0 0 1-1.25-9.633c1.213-2.977 3.943-5.457 7.686-5.714a4.6 4.6 0 0 0 4.057-4.053c.256-3.747 2.74-6.477 5.716-7.69 2.98-1.213 6.687-1.017 9.634 1.253l.13.1.113.114c1.3 1.296 3.46 1.453 5.254-.114l.033-.03h-.007Z" fill="var(--icon-color, black)"/><path fill-rule="evenodd" clip-rule="evenodd" d="M32.657 47.333c-1-1-1-2.666 0-4l10.667-10.666c1-1 2.666-1 4 0 1 1 1 2.666 0 4L36.657 47.333c-1.333 1-3 1-4 0ZM45.324 50c-.667-.667-1-1.333-1-2.333 0-1 .333-1.667 1-2.334.666-.666 1.666-1 2.333-1 1.667 0 3.333 1.667 3.333 3.334 0 1-.333 1.666-1 2.333-.666.667-1.333 1-2.333 1-1 0-2-.333-2.333-1ZM29.99 34.667c-.666-.667-1-1.334-1-2.334s.334-1.666 1-2.333c.667-.667 1.334-1 2.334-1 1.666 0 3.333 1.667 3.333 3.333 0 1-.333 1.667-1 2.334-.667.666-1.667 1-2.333 1-1 0-1.667-.334-2.334-1Z" fill="var(--icon-color, black)"/></svg><svg fill="none" viewBox="0 0 24 24" id="inst" xmlns="http://www.w3.org/2000/svg"><path fill-rule="evenodd" clip-rule="evenodd" d="M15.429 4H8.57A4.571 4.571 0 0 0 4 8.571v6.858A4.571 4.571 0 0 0 8.571 20h6.858A4.571 4.571 0 0 0 20 15.429V8.57A4.571 4.571 0 0 0 15.429 4Z" fill="var(--icon-color, white)"/><path clip-rule="evenodd" d="M12 14.88a2.88 2.88 0 1 1 0-5.76 2.88 2.88 0 0 1 0 5.76Z" stroke="var(--icon-third-color, #0A0A0A)" stroke-linecap="round" stroke-linejoin="round"/><path d="M15.84 7.2a.96.96 0 1 0 0 1.92.96.96 0 0 0 0-1.92Z" fill="var(--icon-third-color, #0A0A0A)"/><path d="M15.84 7.68a.48.48 0 1 0 0 .96.48.48 0 0 0 0-.96Z" fill="var(--icon-sub-color, black)"/></svg><svg fill="none" viewBox="0 0 24 24" id="inst-fill" xmlns="http://www.w3.org/2000/svg"><path fill-rule="evenodd" clip-rule="evenodd" d="M15.429 4H8.57A4.571 4.571 0 0 0 4 8.571v6.858A4.571 4.571 0 0 0 8.571 20h6.858A4.571 4.571 0 0 0 20 15.429V8.57A4.571 4.571 0 0 0 15.429 4Z" fill="var(--icon-sub-color, #AB8A44)"/><path fill-rule="evenodd" clip-rule="evenodd" d="M12 14.88a2.88 2.88 0 1 1 0-5.76 2.88 2.88 0 0 1 0 5.76Z" fill="var(--icon-color, white)" stroke="var(--icon-sub-color, #AB8A44)" stroke-linecap="round" stroke-linejoin="round"/><path d="M15.84 7.2a.96.96 0 1 0 0 1.92.96.96 0 0 0 0-1.92Z" fill="var(--icon-color, white)"/><path d="M15.84 7.68a.48.48 0 1 0 0 .96.48.48 0 0 0 0-.96Z" fill="var(--icon-color, white)"/></svg><svg fill="none" viewBox="0 0 24 24" id="map-marker" xmlns="http://www.w3.org/2000/svg"><path fill-rule="evenodd" clip-rule="evenodd" d="M16.526 5.062c2.666 2.757 2.666 7.202 0 9.958L11.7 20l-4.826-4.979c-2.665-2.756-2.665-7.201 0-9.958A6.713 6.713 0 0 1 11.7 3c1.813 0 3.55.742 4.826 2.062Z" fill="var(--icon-color, white)"/><path fill-rule="evenodd" clip-rule="evenodd" d="M14.43 9.611c-.018 1.542-1.248 2.78-2.751 2.767-1.504-.012-2.714-1.269-2.709-2.81.006-1.543 1.227-2.79 2.73-2.79 1.517.01 2.739 1.278 2.73 2.833Z" fill="var(--icon-sub-color, #0A0A0A)" stroke="var(--icon-color, white)" stroke-linecap="round" stroke-linejoin="round"/></svg><svg fill="none" viewBox="0 0 32 32" id="map-marker-fill" xmlns="http://www.w3.org/2000/svg"><path fill-rule="evenodd" clip-rule="evenodd" d="M22.035 6.75c3.554 3.675 3.554 9.602 0 13.277l-6.435 6.64-6.435-6.639c-3.553-3.675-3.553-9.602 0-13.277A8.95 8.95 0 0 1 15.6 4a8.95 8.95 0 0 1 6.435 2.75Z" fill="var(--icon-color, #AB8A44)"/><path fill-rule="evenodd" clip-rule="evenodd" d="M19.24 12.815c-.023 2.056-1.663 3.705-3.668 3.689-2.005-.016-3.62-1.692-3.611-3.748.007-2.056 1.634-3.718 3.64-3.719 2.021.013 3.65 1.704 3.64 3.778Z" fill="var(--icon-color, white)"/></svg><svg fill="none" viewBox="0 0 81 80" id="money" xmlns="http://www.w3.org/2000/svg"><path fill-rule="evenodd" clip-rule="evenodd" d="M6.832 27.833c0-8.34 6.743-15.5 15.5-15.5h26c8.317 0 15.1 6.367 15.5 14.714v.203c-.005.11-.016.218-.033.327-.049.344-.15.68-.3.993v11.263c0 8.34-6.744 15.5-15.5 15.5H22.332c-8.34 0-15.5-6.743-15.5-15.5v-12Zm51.94-1.31c-.623-5.266-5.017-9.19-10.44-9.19h-26c-5.91 0-10.5 4.84-10.5 10.5v12c0 5.91 4.84 10.5 10.5 10.5h25.667c5.91 0 10.5-4.84 10.5-10.5V26.8l.273-.277Zm-23.44 2.81c-2.62 0-4.5 1.88-4.5 4.5 0 2.367 1.957 4.5 4.5 4.5 2.367 0 4.5-1.956 4.5-4.5 0-2.62-1.88-4.5-4.5-4.5Zm-9.5 4.5c0-5.38 4.12-9.5 9.5-9.5s9.5 4.12 9.5 9.5c0 5.457-4.533 9.5-9.5 9.5-5.457 0-9.5-4.533-9.5-9.5Z" fill="var(--icon-color, #0A0A0A)"/><path fill-rule="evenodd" clip-rule="evenodd" d="M61.745 24.7c7.21 1.2 12.423 7.247 12.423 14.8v13a15.163 15.163 0 0 1-15.167 15.167H32.335c-8.294 0-15.167-6.367-15.167-14.834h5c0 5.534 4.46 9.834 10.167 9.834H59A10.16 10.16 0 0 0 69.168 52.5v-13c0-5.113-3.453-9.067-8.243-9.867l.82-4.933Z" fill="var(--icon-color, #0A0A0A)"/><path fill-rule="evenodd" clip-rule="evenodd" d="M35.332 29.333c-2.62 0-4.5 1.88-4.5 4.5 0 2.367 1.957 4.5 4.5 4.5 2.62 0 4.5-1.88 4.5-4.5 0-2.543-2.133-4.5-4.5-4.5Zm-9.5 4.5c0-5.38 4.12-9.5 9.5-9.5 4.967 0 9.5 4.044 9.5 9.5 0 5.38-4.12 9.5-9.5 9.5-5.457 0-9.5-4.533-9.5-9.5Z" fill="var(--icon-color, #0A0A0A)"/></svg><svg viewBox="0 0 24 24" id="phone" xmlns="http://www.w3.org/2000/svg"><path fill-rule="evenodd" clip-rule="evenodd" d="M6.109 6.587c.845-.89 1.143-1.14 1.503-1.255.25-.065.51-.07.762-.01.33.095.417.168 1.5 1.247.951.948 1.046 1.05 1.138 1.236.174.325.201.71.074 1.056-.095.264-.232.438-.809 1.017l-.376.378a.326.326 0 0 0-.058.378 9.72 9.72 0 0 0 3.447 3.456c.164.088.366.06.499-.07l.362-.356c.223-.23.46-.446.71-.647.39-.24.877-.262 1.288-.057.2.096.267.155 1.248 1.135 1.011 1.009 1.04 1.04 1.152 1.272.21.383.207.846-.006 1.228-.109.215-.175.292-.744.874-.344.351-.667.672-.72.72-.469.388-1.071.579-1.68.531a7.65 7.65 0 0 1-3.153-1.007 14.48 14.48 0 0 1-5.293-4.8c-.291-.422-.55-.866-.774-1.327a6.597 6.597 0 0 1-.899-3.398 2.29 2.29 0 0 1 .829-1.6Z" fill="var(--icon-color, white)"/></svg><svg fill="none" viewBox="0 0 32 32" id="phone-fill" xmlns="http://www.w3.org/2000/svg"><path fill-rule="evenodd" clip-rule="evenodd" d="M8.145 8.783C9.272 7.597 9.67 7.264 10.15 7.11c.332-.087.68-.092 1.015-.014.44.128.557.225 2 1.664 1.269 1.263 1.396 1.4 1.517 1.647.233.434.27.946.1 1.408-.128.352-.31.585-1.079 1.357l-.502.503a.435.435 0 0 0-.077.505 12.96 12.96 0 0 0 4.596 4.608.57.57 0 0 0 .665-.094l.483-.475c.298-.305.614-.593.946-.863a1.771 1.771 0 0 1 1.717-.075c.268.128.356.207 1.664 1.513 1.35 1.345 1.388 1.387 1.536 1.696.28.51.277 1.13-.007 1.637-.145.287-.233.39-.992 1.166-.459.469-.89.896-.959.959a3.129 3.129 0 0 1-2.24.709 10.198 10.198 0 0 1-4.205-1.343 19.307 19.307 0 0 1-7.058-6.4 13.598 13.598 0 0 1-1.031-1.769 8.796 8.796 0 0 1-1.198-4.53 3.054 3.054 0 0 1 1.104-2.135Z" fill="var(--icon-color, #AB8A44)"/></svg><svg fill="none" viewBox="0 0 80 80" id="square-time" xmlns="http://www.w3.org/2000/svg"><path fill-rule="evenodd" clip-rule="evenodd" d="M30.835 17.5a13.15 13.15 0 0 0-13.167 13.167V49a13.15 13.15 0 0 0 13.167 13.167h18.333A13.15 13.15 0 0 0 62.335 49V30.667A13.15 13.15 0 0 0 49.168 17.5H30.835ZM12.668 30.667A18.15 18.15 0 0 1 30.835 12.5h18.333a18.15 18.15 0 0 1 18.167 18.167V49a18.152 18.152 0 0 1-18.167 18.167H30.835A18.149 18.149 0 0 1 12.668 49V30.667Z" fill="var(--icon-color, black)"/><path fill-rule="evenodd" clip-rule="evenodd" d="M39.835 28.5a2.5 2.5 0 0 1 2.5 2.5v9.667c0 .54.283 1.283.786 2.083l4.814 4.817A2.5 2.5 0 0 1 44.4 51.1l-5.176-5.173-.137-.207c-.75-1.123-1.753-2.967-1.753-5.053V31a2.5 2.5 0 0 1 2.5-2.5Z" fill="var(--icon-color, black)"/></svg><svg fill="none" viewBox="0 0 24 24" id="telegram" xmlns="http://www.w3.org/2000/svg"><path fill-rule="evenodd" clip-rule="evenodd" d="M3.21 11.287C7.934 9.03 11.085 7.54 12.66 6.821c4.5-2.053 5.436-2.41 6.045-2.422.134-.002.434.034.628.207.164.146.21.343.231.481.022.139.048.454.027.7-.244 2.811-1.299 9.633-1.836 12.782-.227 1.332-.674 1.779-1.108 1.822-.94.095-1.655-.682-2.567-1.337-1.426-1.026-2.232-1.665-3.617-2.665-1.6-1.157-.562-1.793.35-2.832.238-.272 4.385-4.41 4.465-4.784.01-.047.02-.222-.075-.315-.095-.092-.235-.06-.336-.035-.143.035-2.421 1.687-6.836 4.956-.647.487-1.232.725-1.757.712-.579-.014-1.692-.359-2.52-.654-1.014-.362-1.821-.553-1.75-1.168.036-.32.438-.647 1.205-.982Z" fill="var(--icon-color, white)"/></svg><svg fill="none" viewBox="0 0 24 24" id="telegram-fill" xmlns="http://www.w3.org/2000/svg"><path fill-rule="evenodd" clip-rule="evenodd" d="M3.21 11.287c4.724-2.258 7.875-3.747 9.451-4.466 4.5-2.053 5.436-2.41 6.045-2.422.134-.002.434.034.628.207.164.146.21.343.231.481.022.139.048.454.027.7-.244 2.811-1.299 9.633-1.836 12.782-.227 1.332-.674 1.779-1.108 1.822-.94.095-1.655-.682-2.567-1.337-1.426-1.026-2.232-1.665-3.617-2.665-1.6-1.157-.562-1.793.35-2.832.238-.272 4.385-4.41 4.465-4.785.01-.046.02-.221-.075-.314-.095-.092-.235-.06-.336-.035-.143.035-2.421 1.687-6.836 4.956-.647.487-1.232.725-1.757.712-.579-.014-1.692-.359-2.52-.654-1.014-.362-1.821-.553-1.75-1.168.036-.32.438-.647 1.205-.982Z" fill="var(--icon-color, #AB8A44)"/></svg><svg fill="none" viewBox="0 0 24 24" id="vk" xmlns="http://www.w3.org/2000/svg"><path d="M21.366 7.277c.138-.43 0-.732-.645-.732h-2.148c-.553 0-.798.273-.936.575 0 0-1.09 2.497-2.64 4.105-.506.473-.721.617-.998.617-.138 0-.337-.144-.337-.574v-3.99c0-.517-.154-.733-.614-.733H9.67c-.337 0-.552.244-.552.46 0 .488.767.603.86 1.952v2.957c0 .646-.123.76-.4.76-.721 0-2.501-2.497-3.545-5.368-.215-.53-.414-.76-.967-.76H2.92c-.614 0-.737.272-.737.574 0 .53.721 3.172 3.392 6.66 1.78 2.383 4.282 3.675 6.553 3.675 1.366 0 1.535-.288 1.535-.776v-1.808c0-.574.122-.69.568-.69.322 0 .86.144 2.133 1.293 1.458 1.363 1.703 1.98 2.517 1.98h2.149c.613 0 .92-.287.736-.846-.2-.56-.89-1.378-1.81-2.354-.507-.56-1.26-1.149-1.474-1.45-.323-.388-.23-.56 0-.89 0-.014 2.624-3.46 2.885-4.636Z" fill="var(--icon-color, white)"/></svg><svg fill="none" viewBox="0 0 24 24" id="vk-fill" xmlns="http://www.w3.org/2000/svg"><g clip-path="url(#sa)"><path d="M21.366 7.277c.138-.43 0-.732-.645-.732h-2.148c-.553 0-.798.273-.936.575 0 0-1.09 2.497-2.64 4.105-.506.473-.721.617-.998.617-.138 0-.337-.144-.337-.574v-3.99c0-.517-.154-.733-.614-.733H9.67c-.337 0-.552.244-.552.46 0 .488.767.603.86 1.952v2.957c0 .646-.123.76-.4.76-.721 0-2.501-2.497-3.545-5.368-.215-.53-.414-.76-.967-.76H2.92c-.614 0-.737.272-.737.574 0 .53.721 3.172 3.392 6.66 1.78 2.383 4.282 3.675 6.553 3.675 1.366 0 1.535-.288 1.535-.776v-1.808c0-.574.122-.69.568-.69.322 0 .86.144 2.133 1.293 1.458 1.363 1.703 1.98 2.517 1.98h2.149c.613 0 .92-.287.736-.846-.2-.56-.89-1.378-1.81-2.354-.507-.56-1.26-1.149-1.474-1.45-.323-.388-.23-.56 0-.89 0-.014 2.624-3.46 2.885-4.636Z" fill="#AB8A44"/></g><defs><clipPath id="sa"><path fill="#fff" d="M0 0h24v24H0z"/></clipPath></defs></svg><svg fill="none" viewBox="0 0 24 24" id="youtube" xmlns="http://www.w3.org/2000/svg"><path fill-rule="evenodd" clip-rule="evenodd" d="M17.441 18.723a4.016 4.016 0 0 0 4.159-3.857V9.14a4.016 4.016 0 0 0-4.159-3.856H6.56a4.016 4.016 0 0 0-4.16 3.856v5.727a4.016 4.016 0 0 0 4.16 3.857H17.44Z" fill="var(--icon-color, white)" stroke="var(--icon-color, white)" stroke-linecap="round" stroke-linejoin="round"/><path clip-rule="evenodd" d="m11.528 9.29 3.034 2.063a.64.64 0 0 1 0 1.106l-3.034 2.256c-.576.39-1.448.057-1.448-.553v-4.32c0-.608.873-.942 1.448-.551Z" stroke="var(--icon-sub-color, #AB8A44)" stroke-linecap="round" stroke-linejoin="round"/></svg><svg fill="none" viewBox="0 0 24 24" id="youtube-fill" xmlns="http://www.w3.org/2000/svg"><path fill-rule="evenodd" clip-rule="evenodd" d="M17.441 18.723a4.016 4.016 0 0 0 4.159-3.857V9.14a4.016 4.016 0 0 0-4.159-3.856H6.56a4.016 4.016 0 0 0-4.16 3.856v5.727a4.016 4.016 0 0 0 4.16 3.857H17.44Z" fill="#AB8A44" stroke="#AB8A44" stroke-linecap="round" stroke-linejoin="round"/><path clip-rule="evenodd" d="m11.528 9.29 3.034 2.063a.64.64 0 0 1 0 1.106l-3.034 2.256c-.576.39-1.448.057-1.448-.553v-4.32c0-.608.873-.942 1.448-.551Z" stroke="#fff" stroke-linecap="round" stroke-linejoin="round"/></svg></svg>